# xmcd
#
# Track frame offsets: 
#        150
#        14240
#        30485
#        44025
#        57977
#        73891
#        90283
#        103778
#
# Disc length: 1572 seconds
#
# Revision: 0
# Processed by: cddbd v1.5.2PL0 Copyright (c) Steve Scherf et al.
# Submitted via: ExactAudioCopyFreeDBPlugin 1.0
#
DISCID=6e062208
DTITLE=Jess Moskaluke - Catch Me If You Can
DYEAR=2012
DGENRE=Country
TTITLE0=Famous
TTITLE1=Catch Me If You Can
TTITLE2=Flawed
TTITLE3=Amen Hallelujah
TTITLE4=Hardest Day
TTITLE5=Derailed
TTITLE6=Go Big or Go Home
TTITLE7=Hit N' Run
EXTD=
EXTT0=
EXTT1=
EXTT2=
EXTT3=
EXTT4=
EXTT5=
EXTT6=
EXTT7=
PLAYORDER=
